<mxfile host="Electron" agent="Mozilla/5.0 (Windows NT 10.0; Win64; x64) AppleWebKit/537.36 (KHTML, like Gecko) draw.io/24.7.17 Chrome/128.0.6613.36 Electron/32.0.1 Safari/537.36" version="24.7.17">
  <diagram name="Page-1" id="sZ2jYWhIf5V467-SxP9Y">
    <mxGraphModel dx="1292" dy="974" grid="1" gridSize="10" guides="1" tooltips="1" connect="1" arrows="1" fold="1" page="1" pageScale="1" pageWidth="850" pageHeight="1100" math="0" shadow="0">
      <root>
        <mxCell id="0" />
        <mxCell id="1" parent="0" />
        <mxCell id="SYHLoigSp2c_G1k-SftJ-37" style="edgeStyle=orthogonalEdgeStyle;rounded=0;orthogonalLoop=1;jettySize=auto;html=1;entryX=0.5;entryY=0;entryDx=0;entryDy=0;" edge="1" parent="1" source="SYHLoigSp2c_G1k-SftJ-1" target="SYHLoigSp2c_G1k-SftJ-36">
          <mxGeometry relative="1" as="geometry" />
        </mxCell>
        <mxCell id="SYHLoigSp2c_G1k-SftJ-1" value="START" style="ellipse;whiteSpace=wrap;html=1;" vertex="1" parent="1">
          <mxGeometry x="365" y="170" width="120" height="80" as="geometry" />
        </mxCell>
        <mxCell id="SYHLoigSp2c_G1k-SftJ-14" value="END" style="ellipse;whiteSpace=wrap;html=1;" vertex="1" parent="1">
          <mxGeometry x="365" y="1000" width="120" height="80" as="geometry" />
        </mxCell>
        <mxCell id="SYHLoigSp2c_G1k-SftJ-39" style="edgeStyle=orthogonalEdgeStyle;rounded=0;orthogonalLoop=1;jettySize=auto;html=1;entryX=0.5;entryY=0;entryDx=0;entryDy=0;" edge="1" parent="1" source="SYHLoigSp2c_G1k-SftJ-36" target="SYHLoigSp2c_G1k-SftJ-38">
          <mxGeometry relative="1" as="geometry" />
        </mxCell>
        <mxCell id="SYHLoigSp2c_G1k-SftJ-36" value="a" style="shape=parallelogram;perimeter=parallelogramPerimeter;whiteSpace=wrap;html=1;fixedSize=1;" vertex="1" parent="1">
          <mxGeometry x="365" y="320" width="120" height="60" as="geometry" />
        </mxCell>
        <mxCell id="SYHLoigSp2c_G1k-SftJ-41" style="edgeStyle=orthogonalEdgeStyle;rounded=0;orthogonalLoop=1;jettySize=auto;html=1;entryX=1;entryY=0.5;entryDx=0;entryDy=0;" edge="1" parent="1" source="SYHLoigSp2c_G1k-SftJ-38" target="SYHLoigSp2c_G1k-SftJ-40">
          <mxGeometry relative="1" as="geometry" />
        </mxCell>
        <mxCell id="SYHLoigSp2c_G1k-SftJ-44" style="edgeStyle=orthogonalEdgeStyle;rounded=0;orthogonalLoop=1;jettySize=auto;html=1;entryX=0.5;entryY=0;entryDx=0;entryDy=0;" edge="1" parent="1" source="SYHLoigSp2c_G1k-SftJ-38" target="SYHLoigSp2c_G1k-SftJ-43">
          <mxGeometry relative="1" as="geometry" />
        </mxCell>
        <mxCell id="SYHLoigSp2c_G1k-SftJ-38" value="a&amp;lt;4?" style="rhombus;whiteSpace=wrap;html=1;" vertex="1" parent="1">
          <mxGeometry x="385" y="440" width="80" height="80" as="geometry" />
        </mxCell>
        <mxCell id="SYHLoigSp2c_G1k-SftJ-65" style="edgeStyle=orthogonalEdgeStyle;rounded=0;orthogonalLoop=1;jettySize=auto;html=1;" edge="1" parent="1" source="SYHLoigSp2c_G1k-SftJ-40">
          <mxGeometry relative="1" as="geometry">
            <mxPoint x="50" y="480" as="targetPoint" />
          </mxGeometry>
        </mxCell>
        <mxCell id="SYHLoigSp2c_G1k-SftJ-40" value="&lt;span style=&quot;font-family: Roboto, sans-serif; font-size: 16px; text-align: left; white-space-collapse: preserve; background-color: rgb(255, 255, 255);&quot;&gt; không đạt&lt;/span&gt;" style="shape=parallelogram;perimeter=parallelogramPerimeter;whiteSpace=wrap;html=1;fixedSize=1;" vertex="1" parent="1">
          <mxGeometry x="100" y="450" width="120" height="60" as="geometry" />
        </mxCell>
        <mxCell id="SYHLoigSp2c_G1k-SftJ-42" value="YES" style="text;html=1;align=center;verticalAlign=middle;resizable=0;points=[];autosize=1;strokeColor=none;fillColor=none;" vertex="1" parent="1">
          <mxGeometry x="280" y="450" width="50" height="30" as="geometry" />
        </mxCell>
        <mxCell id="SYHLoigSp2c_G1k-SftJ-47" style="edgeStyle=orthogonalEdgeStyle;rounded=0;orthogonalLoop=1;jettySize=auto;html=1;entryX=1;entryY=0.25;entryDx=0;entryDy=0;" edge="1" parent="1" source="SYHLoigSp2c_G1k-SftJ-43" target="SYHLoigSp2c_G1k-SftJ-46">
          <mxGeometry relative="1" as="geometry">
            <Array as="points">
              <mxPoint x="215" y="590" />
            </Array>
          </mxGeometry>
        </mxCell>
        <mxCell id="SYHLoigSp2c_G1k-SftJ-49" style="edgeStyle=orthogonalEdgeStyle;rounded=0;orthogonalLoop=1;jettySize=auto;html=1;entryX=0.5;entryY=0;entryDx=0;entryDy=0;" edge="1" parent="1" source="SYHLoigSp2c_G1k-SftJ-43" target="SYHLoigSp2c_G1k-SftJ-48">
          <mxGeometry relative="1" as="geometry" />
        </mxCell>
        <mxCell id="SYHLoigSp2c_G1k-SftJ-43" value="a&amp;lt;=6" style="rhombus;whiteSpace=wrap;html=1;" vertex="1" parent="1">
          <mxGeometry x="520" y="550" width="80" height="80" as="geometry" />
        </mxCell>
        <mxCell id="SYHLoigSp2c_G1k-SftJ-45" value="NO&lt;div&gt;&lt;br&gt;&lt;/div&gt;" style="text;html=1;align=center;verticalAlign=middle;resizable=0;points=[];autosize=1;strokeColor=none;fillColor=none;" vertex="1" parent="1">
          <mxGeometry x="480" y="450" width="40" height="40" as="geometry" />
        </mxCell>
        <mxCell id="SYHLoigSp2c_G1k-SftJ-66" style="edgeStyle=orthogonalEdgeStyle;rounded=0;orthogonalLoop=1;jettySize=auto;html=1;" edge="1" parent="1" source="SYHLoigSp2c_G1k-SftJ-46">
          <mxGeometry relative="1" as="geometry">
            <mxPoint x="50" y="590" as="targetPoint" />
          </mxGeometry>
        </mxCell>
        <mxCell id="SYHLoigSp2c_G1k-SftJ-46" value="&lt;span style=&quot;font-family: Roboto, sans-serif; font-size: 16px; text-align: left; white-space-collapse: preserve; background-color: rgb(255, 255, 255);&quot;&gt;trung bình&lt;/span&gt;" style="shape=parallelogram;perimeter=parallelogramPerimeter;whiteSpace=wrap;html=1;fixedSize=1;" vertex="1" parent="1">
          <mxGeometry x="100" y="560" width="120" height="60" as="geometry" />
        </mxCell>
        <mxCell id="SYHLoigSp2c_G1k-SftJ-53" style="edgeStyle=orthogonalEdgeStyle;rounded=0;orthogonalLoop=1;jettySize=auto;html=1;" edge="1" parent="1" source="SYHLoigSp2c_G1k-SftJ-48" target="SYHLoigSp2c_G1k-SftJ-52">
          <mxGeometry relative="1" as="geometry" />
        </mxCell>
        <mxCell id="SYHLoigSp2c_G1k-SftJ-56" style="edgeStyle=orthogonalEdgeStyle;rounded=0;orthogonalLoop=1;jettySize=auto;html=1;entryX=0.5;entryY=0;entryDx=0;entryDy=0;" edge="1" parent="1" source="SYHLoigSp2c_G1k-SftJ-48" target="SYHLoigSp2c_G1k-SftJ-55">
          <mxGeometry relative="1" as="geometry" />
        </mxCell>
        <mxCell id="SYHLoigSp2c_G1k-SftJ-48" value="a&amp;lt;=8" style="rhombus;whiteSpace=wrap;html=1;" vertex="1" parent="1">
          <mxGeometry x="610" y="660" width="80" height="80" as="geometry" />
        </mxCell>
        <mxCell id="SYHLoigSp2c_G1k-SftJ-50" value="YES" style="text;html=1;align=center;verticalAlign=middle;resizable=0;points=[];autosize=1;strokeColor=none;fillColor=none;" vertex="1" parent="1">
          <mxGeometry x="295" y="558" width="50" height="30" as="geometry" />
        </mxCell>
        <mxCell id="SYHLoigSp2c_G1k-SftJ-51" value="NO" style="text;html=1;align=center;verticalAlign=middle;resizable=0;points=[];autosize=1;strokeColor=none;fillColor=none;" vertex="1" parent="1">
          <mxGeometry x="600" y="560" width="40" height="30" as="geometry" />
        </mxCell>
        <mxCell id="SYHLoigSp2c_G1k-SftJ-67" style="edgeStyle=orthogonalEdgeStyle;rounded=0;orthogonalLoop=1;jettySize=auto;html=1;" edge="1" parent="1" source="SYHLoigSp2c_G1k-SftJ-52">
          <mxGeometry relative="1" as="geometry">
            <mxPoint x="50" y="700" as="targetPoint" />
          </mxGeometry>
        </mxCell>
        <mxCell id="SYHLoigSp2c_G1k-SftJ-52" value="&lt;span style=&quot;font-family: Roboto, sans-serif; font-size: 16px; text-align: left; white-space-collapse: preserve; background-color: rgb(255, 255, 255);&quot;&gt;khá&lt;/span&gt;" style="shape=parallelogram;perimeter=parallelogramPerimeter;whiteSpace=wrap;html=1;fixedSize=1;" vertex="1" parent="1">
          <mxGeometry x="100" y="670" width="120" height="60" as="geometry" />
        </mxCell>
        <mxCell id="SYHLoigSp2c_G1k-SftJ-54" value="&#xa;&lt;span style=&quot;color: rgb(0, 0, 0); font-family: Helvetica; font-size: 12px; font-style: normal; font-variant-ligatures: normal; font-variant-caps: normal; font-weight: 400; letter-spacing: normal; orphans: 2; text-align: center; text-indent: 0px; text-transform: none; widows: 2; word-spacing: 0px; -webkit-text-stroke-width: 0px; white-space: nowrap; background-color: rgb(251, 251, 251); text-decoration-thickness: initial; text-decoration-style: initial; text-decoration-color: initial; display: inline !important; float: none;&quot;&gt;YES&lt;/span&gt;&#xa;&#xa;" style="text;html=1;align=center;verticalAlign=middle;resizable=0;points=[];autosize=1;strokeColor=none;fillColor=none;" vertex="1" parent="1">
          <mxGeometry x="295" y="660" width="50" height="60" as="geometry" />
        </mxCell>
        <mxCell id="SYHLoigSp2c_G1k-SftJ-59" style="edgeStyle=orthogonalEdgeStyle;rounded=0;orthogonalLoop=1;jettySize=auto;html=1;" edge="1" parent="1" source="SYHLoigSp2c_G1k-SftJ-55" target="SYHLoigSp2c_G1k-SftJ-58">
          <mxGeometry relative="1" as="geometry" />
        </mxCell>
        <mxCell id="SYHLoigSp2c_G1k-SftJ-62" style="edgeStyle=orthogonalEdgeStyle;rounded=0;orthogonalLoop=1;jettySize=auto;html=1;entryX=0.567;entryY=0.027;entryDx=0;entryDy=0;entryPerimeter=0;" edge="1" parent="1" source="SYHLoigSp2c_G1k-SftJ-55" target="SYHLoigSp2c_G1k-SftJ-74">
          <mxGeometry relative="1" as="geometry">
            <mxPoint x="830" y="820" as="targetPoint" />
            <Array as="points">
              <mxPoint x="805" y="780" />
              <mxPoint x="805" y="820" />
              <mxPoint x="848" y="820" />
            </Array>
          </mxGeometry>
        </mxCell>
        <mxCell id="SYHLoigSp2c_G1k-SftJ-55" value="a&amp;lt;=9" style="rhombus;whiteSpace=wrap;html=1;" vertex="1" parent="1">
          <mxGeometry x="700" y="740" width="80" height="80" as="geometry" />
        </mxCell>
        <mxCell id="SYHLoigSp2c_G1k-SftJ-57" value="NO" style="text;html=1;align=center;verticalAlign=middle;resizable=0;points=[];autosize=1;strokeColor=none;fillColor=none;" vertex="1" parent="1">
          <mxGeometry x="690" y="670" width="40" height="30" as="geometry" />
        </mxCell>
        <mxCell id="SYHLoigSp2c_G1k-SftJ-68" style="edgeStyle=orthogonalEdgeStyle;rounded=0;orthogonalLoop=1;jettySize=auto;html=1;" edge="1" parent="1" source="SYHLoigSp2c_G1k-SftJ-58">
          <mxGeometry relative="1" as="geometry">
            <mxPoint x="50" y="790" as="targetPoint" />
          </mxGeometry>
        </mxCell>
        <mxCell id="SYHLoigSp2c_G1k-SftJ-58" value="&lt;span style=&quot;font-family: Roboto, sans-serif; font-size: 16px; text-align: left; white-space-collapse: preserve; background-color: rgb(255, 255, 255);&quot;&gt;giỏi&lt;/span&gt;" style="shape=parallelogram;perimeter=parallelogramPerimeter;whiteSpace=wrap;html=1;fixedSize=1;" vertex="1" parent="1">
          <mxGeometry x="110" y="760" width="120" height="60" as="geometry" />
        </mxCell>
        <mxCell id="SYHLoigSp2c_G1k-SftJ-60" value="&#xa;&lt;span style=&quot;color: rgb(0, 0, 0); font-family: Helvetica; font-size: 12px; font-style: normal; font-variant-ligatures: normal; font-variant-caps: normal; font-weight: 400; letter-spacing: normal; orphans: 2; text-align: center; text-indent: 0px; text-transform: none; widows: 2; word-spacing: 0px; -webkit-text-stroke-width: 0px; white-space: nowrap; background-color: rgb(251, 251, 251); text-decoration-thickness: initial; text-decoration-style: initial; text-decoration-color: initial; display: inline !important; float: none;&quot;&gt;YES&lt;/span&gt;&#xa;&#xa;" style="text;html=1;align=center;verticalAlign=middle;resizable=0;points=[];autosize=1;strokeColor=none;fillColor=none;" vertex="1" parent="1">
          <mxGeometry x="295" y="750" width="50" height="60" as="geometry" />
        </mxCell>
        <mxCell id="SYHLoigSp2c_G1k-SftJ-73" style="edgeStyle=orthogonalEdgeStyle;rounded=0;orthogonalLoop=1;jettySize=auto;html=1;entryX=1;entryY=0.5;entryDx=0;entryDy=0;" edge="1" parent="1" target="SYHLoigSp2c_G1k-SftJ-14">
          <mxGeometry relative="1" as="geometry">
            <mxPoint x="790.0000000000005" y="860.0000000000002" as="sourcePoint" />
          </mxGeometry>
        </mxCell>
        <mxCell id="SYHLoigSp2c_G1k-SftJ-63" value="NO" style="text;html=1;align=center;verticalAlign=middle;resizable=0;points=[];autosize=1;strokeColor=none;fillColor=none;" vertex="1" parent="1">
          <mxGeometry x="800" y="790" width="40" height="30" as="geometry" />
        </mxCell>
        <mxCell id="SYHLoigSp2c_G1k-SftJ-70" value="" style="endArrow=none;html=1;rounded=0;" edge="1" parent="1">
          <mxGeometry width="50" height="50" relative="1" as="geometry">
            <mxPoint x="50" y="1040" as="sourcePoint" />
            <mxPoint x="50" y="480" as="targetPoint" />
          </mxGeometry>
        </mxCell>
        <mxCell id="SYHLoigSp2c_G1k-SftJ-71" value="" style="endArrow=classic;html=1;rounded=0;entryX=0;entryY=0.5;entryDx=0;entryDy=0;" edge="1" parent="1" target="SYHLoigSp2c_G1k-SftJ-14">
          <mxGeometry width="50" height="50" relative="1" as="geometry">
            <mxPoint x="50" y="1039.58" as="sourcePoint" />
            <mxPoint x="130" y="1039.58" as="targetPoint" />
          </mxGeometry>
        </mxCell>
        <mxCell id="SYHLoigSp2c_G1k-SftJ-74" value="&lt;span style=&quot;font-family: Roboto, sans-serif; font-size: 16px; text-align: left; white-space-collapse: preserve; background-color: rgb(255, 255, 255);&quot;&gt;xuất sắc&lt;/span&gt;" style="shape=parallelogram;perimeter=parallelogramPerimeter;whiteSpace=wrap;html=1;fixedSize=1;" vertex="1" parent="1">
          <mxGeometry x="780" y="830" width="120" height="70" as="geometry" />
        </mxCell>
      </root>
    </mxGraphModel>
  </diagram>
</mxfile>
